<svg width="84" height="13" viewBox="0 0 84 13" fill="none" xmlns="http://www.w3.org/2000/svg">
<path d="M78.2195 50.2778C73.6557 45.7139 73.6557 38.3094 78.2195 33.7222C85.9268 26.015 85.9268 13.4877 78.2195 5.78046C70.5123 -1.92682 57.985 -1.92682 50.2778 5.78046C45.7139 10.3443 38.3094 10.3443 33.7222 5.78046C26.015 -1.92682 13.4877 -1.92682 5.78046 5.78046C-1.92682 13.4877 -1.92682 26.015 5.78046 33.7222C10.3443 38.2861 10.3443 45.6906 5.78046 50.2778C-1.92682 57.985 -1.92682 70.5123 5.78046 78.2195C13.4877 85.9268 26.015 85.9268 33.7222 78.2195C38.2861 73.6557 45.6906 73.6557 50.2778 78.2195C57.985 85.9268 70.5123 85.9268 78.2195 78.2195C85.9268 70.5123 85.9268 58.0083 78.2195 50.2778Z" fill="white"/>
</svg>
