<svg class='icon_sidebar' width="24" height="25" viewBox="0 0 24 25" fill="none" xmlns="http://www.w3.org/2000/svg">
<path fill-rule="evenodd" clip-rule="evenodd" d="M12 1.5C9.08262 1.5 6.28473 2.65893 4.22183 4.72183C2.15893 6.78473 1 9.58262 1 12.5C1 15.4174 2.15893 18.2153 4.22183 20.2782C6.28473 22.3411 9.08262 23.5 12 23.5C14.9174 23.5 17.7153 22.3411 19.7782 20.2782C21.8411 18.2153 23 15.4174 23 12.5C23 9.58262 21.8411 6.78473 19.7782 4.72183C17.7153 2.65893 14.9174 1.5 12 1.5ZM12 21.8077C9.53145 21.8077 7.164 20.8271 5.41847 19.0815C3.67294 17.336 2.69231 14.9686 2.69231 12.5C2.69231 10.0314 3.67294 7.664 5.41847 5.91847C7.164 4.17294 9.53145 3.19231 12 3.19231C14.4686 3.19231 16.836 4.17294 18.5815 5.91847C20.3271 7.664 21.3077 10.0314 21.3077 12.5C21.3077 14.9686 20.3271 17.336 18.5815 19.0815C16.836 20.8271 14.4686 21.8077 12 21.8077ZM14.6231 7.55846C14.332 7.25254 13.9804 7.0105 13.5908 6.84769C13.1017 6.65187 12.5773 6.55967 12.0508 6.57692C11.5399 6.56962 11.0329 6.66755 10.5615 6.86462C10.1571 7.03385 9.8 7.29446 9.51231 7.62615C9.2324 7.93123 9.01404 8.2875 8.86923 8.67538C8.73496 9.06959 8.64971 9.47882 8.61538 9.89385H10.6969C10.7065 9.62525 10.7921 9.36488 10.9436 9.14293C11.0952 8.92098 11.3066 8.74654 11.5532 8.63985C11.7164 8.57436 11.8922 8.54604 12.0677 8.55692C12.2191 8.53395 12.3732 8.53395 12.5246 8.55692C12.6646 8.60765 12.7917 8.68853 12.8969 8.79385C13.0145 8.89558 13.1071 9.02296 13.1677 9.16615C13.2386 9.32583 13.2732 9.4992 13.2692 9.67385C13.2692 9.96662 13.2066 10.2543 13.0831 10.52C12.9602 10.7957 12.8069 11.0568 12.6262 11.2985L12.0338 12.0092C11.8308 12.2292 11.6277 12.4662 11.4415 12.7031C11.2607 12.9387 11.1074 13.1942 10.9846 13.4646C10.8682 13.7313 10.8105 14.0199 10.8154 14.3108V15.4277H12.8462V14.5985C12.8519 14.3503 12.9156 14.1068 13.0323 13.8877C13.1708 13.6437 13.3293 13.4116 13.5062 13.1938L14.1154 12.4492C14.3385 12.1941 14.5422 11.9226 14.7246 11.6369C14.919 11.3466 15.078 11.0341 15.1985 10.7062C15.3222 10.3585 15.3852 9.99211 15.3846 9.62308C15.3871 9.23866 15.33 8.85618 15.2154 8.48923C15.0886 8.1393 14.8864 7.82154 14.6231 7.55846ZM10.8154 16.4431H12.7954V18.4231H10.8154V16.4431Z" fill="#0D060B"/>
</svg>
