<svg width="24" height="24" viewBox="0 0 24 24" fill="none" xmlns="http://www.w3.org/2000/svg">
<path d="M23.3686 3.72542L12.2918 0.0471954C12.1023 -0.0157318 11.8975 -0.0157318 11.708 0.0471954L0.631148 3.72542C0.447348 3.78646 0.287487 3.90356 0.17421 4.06014C0.0609337 4.21673 -1.43563e-05 4.40484 2.53655e-09 4.59785V13.7934C2.53655e-09 14.0373 0.0972516 14.2712 0.270361 14.4436C0.44347 14.6161 0.678256 14.713 0.923069 14.713C1.16788 14.713 1.40267 14.6161 1.57578 14.4436C1.74889 14.2712 1.84614 14.0373 1.84614 13.7934V5.87373L5.72187 7.15997C4.69214 8.81724 4.36469 10.8139 4.81142 12.7114C5.25815 14.609 6.44255 16.2524 8.10455 17.2808C6.02764 18.0923 4.23227 19.5602 2.91921 21.5671C2.85092 21.6682 2.80348 21.7818 2.77966 21.9014C2.75584 22.0209 2.75611 22.144 2.78045 22.2634C2.80479 22.3828 2.85271 22.4962 2.92144 22.5971C2.99016 22.6979 3.07832 22.7841 3.18078 22.8507C3.28325 22.9172 3.39797 22.9629 3.51829 22.9849C3.6386 23.0069 3.76211 23.0049 3.88164 22.9789C4.00116 22.953 4.11432 22.9036 4.21452 22.8337C4.31473 22.7638 4.39999 22.6747 4.46535 22.5717C6.20418 19.9142 8.95031 18.3912 11.9999 18.3912C15.0495 18.3912 17.7956 19.9142 19.5344 22.5717C19.6698 22.7722 19.879 22.9115 20.1166 22.9596C20.3543 23.0076 20.6014 22.9606 20.8046 22.8286C21.0077 22.6966 21.1505 22.4903 21.2022 22.2542C21.2538 22.0182 21.2102 21.7713 21.0806 21.5671C19.7675 19.5602 17.9652 18.0923 15.8952 17.2808C17.5557 16.2525 18.7389 14.6101 19.1856 12.7139C19.6322 10.8178 19.3058 8.8225 18.2779 7.16571L23.3686 5.47603C23.5525 5.41502 23.7124 5.29793 23.8257 5.14135C23.939 4.98477 24 4.79663 24 4.6036C24 4.41057 23.939 4.22243 23.8257 4.06584C23.7124 3.90926 23.5525 3.79217 23.3686 3.73117V3.72542ZM17.5383 11.0347C17.5386 11.907 17.3312 12.7669 16.9333 13.5439C16.5353 14.3208 15.9581 14.9928 15.249 15.5045C14.5399 16.0162 13.7192 16.3531 12.854 16.4876C11.9889 16.6222 11.1041 16.5504 10.2722 16.2783C9.4403 16.0062 8.68501 15.5415 8.0683 14.9223C7.4516 14.3031 6.99105 13.5471 6.72445 12.7162C6.45785 11.8854 6.39279 11.0034 6.53462 10.1427C6.67644 9.28191 7.0211 8.46693 7.54032 7.76457L11.708 9.14391C11.8975 9.20684 12.1023 9.20684 12.2918 9.14391L16.4595 7.76457C17.1607 8.71175 17.5388 9.85784 17.5383 11.0347ZM11.9999 7.30709L3.84227 4.59785L11.9999 1.88861L20.1575 4.59785L11.9999 7.30709Z" fill="#0D060B"/>
</svg>
