<svg width="126" height="56" viewBox="0 0 126 56" fill="none" xmlns="http://www.w3.org/2000/svg">
<path d="M117.329 5.41663C110.484 -1.42911 110.484 -12.536 117.329 -19.4166C128.89 -30.9775 128.89 -49.7684 117.329 -61.3293C105.768 -72.8902 86.9775 -72.8902 75.4166 -61.3293C68.5709 -54.4836 57.464 -54.4836 50.5834 -61.3293C39.0225 -72.8902 20.2316 -72.8902 8.67069 -61.3293C-2.89023 -49.7684 -2.89023 -30.9775 8.67069 -19.4166C15.5164 -12.5709 15.5164 -1.46404 8.67069 5.41663C-2.89023 16.9775 -2.89023 35.7684 8.67069 47.3293C20.2316 58.8902 39.0225 58.8902 50.5834 47.3293C57.4291 40.4836 68.536 40.4836 75.4166 47.3293C86.9775 58.8902 105.768 58.8902 117.329 47.3293C128.89 35.7684 128.89 17.0125 117.329 5.41663Z" fill="white"/>
</svg>
