<svg width="126" height="74" viewBox="0 0 126 74" fill="none" xmlns="http://www.w3.org/2000/svg">
<g opacity="0.6">
<path d="M170.847 7.37228C166.381 -4.73902 172.583 -18.1869 184.714 -22.6951C205.167 -30.237 215.66 -52.9884 208.118 -73.4417C200.576 -93.8949 177.825 -104.388 157.371 -96.8459C145.26 -92.38 131.812 -98.5821 127.304 -110.713C119.762 -131.166 97.0106 -141.659 76.5573 -134.117C56.1041 -126.575 45.6112 -103.824 53.1531 -83.3705C57.6191 -71.2592 51.4169 -57.8113 39.2861 -53.3031C18.8329 -45.7612 8.33999 -23.0098 15.8819 -2.55654C23.4239 17.8967 46.1753 28.3896 66.6285 20.8477C78.7398 16.3817 92.1877 22.5839 96.6959 34.7147C104.238 55.1679 126.989 65.6608 147.442 58.1189C167.896 50.5769 178.369 27.8678 170.847 7.37228Z" fill="white"/>
</g>
</svg>
