<svg  class='icon_sidebar' width="24" height="25" viewBox="0 0 24 25" fill="none" xmlns="http://www.w3.org/2000/svg">
<path d="M9.17997 1.5H14.82L15.467 4.737C16.0027 4.97706 16.512 5.27197 16.987 5.617L20.116 4.558L22.936 9.442L20.455 11.622C20.5149 12.2058 20.5149 12.7942 20.455 13.378L22.935 15.558L20.116 20.442L16.987 19.384C16.512 19.7287 16.0026 20.0233 15.467 20.263L14.819 23.5H9.17997L8.53296 20.263C7.99727 20.0229 7.48788 19.728 7.01296 19.383L3.88397 20.442L1.06396 15.558L3.54496 13.378C3.48505 12.7942 3.48505 12.2058 3.54496 11.622L1.06496 9.442L3.88496 4.558L7.01296 5.616C7.48793 5.27131 7.99731 4.97674 8.53296 4.737L9.17997 1.5ZM10.82 3.5L10.278 6.205L9.75296 6.398C9.0572 6.65488 8.41053 7.02895 7.84096 7.504L7.41096 7.863L4.79596 6.978L3.61596 9.022L5.68796 10.843L5.59296 11.394C5.46853 12.1261 5.46853 12.8739 5.59296 13.606L5.68796 14.156L3.61496 15.978L4.79496 18.022L7.41096 17.137L7.84096 17.496C8.41053 17.971 9.0572 18.3451 9.75296 18.602L10.278 18.795L10.82 21.5H13.18L13.722 18.795L14.247 18.602C14.9427 18.3451 15.5894 17.971 16.159 17.496L16.589 17.137L19.205 18.022L20.385 15.978L18.313 14.157L18.407 13.606C18.5314 12.8739 18.5314 12.1261 18.407 11.394L18.313 10.844L20.385 9.022L19.205 6.978L16.589 7.863L16.159 7.504C15.5894 7.02895 14.9427 6.65488 14.247 6.398L13.722 6.205L13.18 3.5H10.82ZM12 9.5C11.2043 9.5 10.4413 9.81607 9.87864 10.3787C9.31604 10.9413 8.99996 11.7043 8.99996 12.5C8.99996 13.2956 9.31604 14.0587 9.87864 14.6213C10.4413 15.1839 11.2043 15.5 12 15.5C12.7956 15.5 13.5587 15.1839 14.1213 14.6213C14.6839 14.0587 15 13.2956 15 12.5C15 11.7043 14.6839 10.9413 14.1213 10.3787C13.5587 9.81607 12.7956 9.5 12 9.5ZM6.99996 12.5C6.99996 11.1739 7.52675 9.90215 8.46443 8.96447C9.40211 8.02678 10.6739 7.5 12 7.5C13.326 7.5 14.5978 8.02678 15.5355 8.96447C16.4732 9.90215 17 11.1739 17 12.5C17 13.8261 16.4732 15.0979 15.5355 16.0355C14.5978 16.9732 13.326 17.5 12 17.5C10.6739 17.5 9.40211 16.9732 8.46443 16.0355C7.52675 15.0979 6.99996 13.8261 6.99996 12.5Z" fill="#0D060B"/>
</svg>
